<svg width="1920" height="390" viewBox="0 0 1920 390" fill="none" xmlns="http://www.w3.org/2000/svg">
<g clip-path="url(#clip0)">
<path fill-rule="evenodd" clip-rule="evenodd" d="M1895.52 -326.442H25.3896V-230.825C-41.1441 -186.626 -85 -111.006 -85 -25.1429C-85 111.135 25.4752 221.61 161.753 221.61C266.893 221.61 356.674 155.853 392.213 63.2209C417.716 83.5122 450.007 95.6363 485.13 95.6363C515.396 95.6363 543.56 86.6332 567.089 71.1591C583.261 250.171 733.724 390.441 916.948 390.441C1054.26 390.441 1173.17 311.664 1230.95 196.84C1259.99 219.677 1296.62 233.299 1336.43 233.299C1400.19 233.299 1455.78 198.359 1485.12 146.583C1536.58 225.381 1625.55 277.454 1726.69 277.454C1885.92 277.454 2015 148.373 2015 -10.8572C2015 -107.035 1967.91 -192.214 1895.52 -244.592V-326.442Z" fill="#10002B"/>
</g>
<defs>
<clipPath id="clip0">
<rect width="1920" height="390" fill="white"/>
</clipPath>
</defs>
</svg>
